# xmcd CD database file
#
# Track frame offsets:
#	150
#	18125
#	39307
#	56952
#	75400
#	92825
#	116620
#	131927
#	149935
#	168967
#	187020
#
# Disc length: 2786 seconds
#
# Revision: 0
# Processed by: cddbd v1.5.1PL0 Copyright (c) Steve Scherf et al.
# Submitted via: CDex 1.51
#
DISCID=9a0ae00b
DTITLE=Mick Martin and The Blues Rockers - Good Reaction
DYEAR=1998
DGENRE=Blues
TTITLE0=Good Reaction
TTITLE1=Back Talking Baby
TTITLE2=Lovehound
TTITLE3=Can't Get Enough
TTITLE4=I Don't Care
TTITLE5=Don't Give Up On Me
TTITLE6=I Don't Play Games
TTITLE7=Got You On My Mind
TTITLE8=You're Right
TTITLE9=Make Her Mine
TTITLE10=Been Burned
EXTD=YEAR: 1998
EXTT0=
EXTT1=
EXTT2=
EXTT3=
EXTT4=
EXTT5=
EXTT6=
EXTT7=
EXTT8=
EXTT9=
EXTT10=
PLAYORDER=
